<svg xmlns="http://www.w3.org/2000/svg" viewBox="0 0 176.85 168.54"><defs><style>.cls-1{fill:#f15a24;}.cls-2{fill:#f7931e;}</style></defs><title>icon-color</title><g id="Layer_2" data-name="Layer 2"><g id="Layer_1-2" data-name="Layer 1"><path class="cls-1" d="M22.14,60.28h84.58a48,48,0,0,1,48,48v0a0,0,0,0,1,0,0H70.12a48,48,0,0,1-48-48v0a0,0,0,0,1,0,0Z"/><path class="cls-2" d="M70.12,0H176.85a0,0,0,0,1,0,0V0a48,48,0,0,1-48,48H22.14a0,0,0,0,1,0,0v0a48,48,0,0,1,48-48Z"/><path class="cls-2" d="M48,120.56H154.7a0,0,0,0,1,0,0v0a48,48,0,0,1-48,48H0a0,0,0,0,1,0,0v0a48,48,0,0,1,48-48Z"/></g></g></svg>