<svg xmlns="http://www.w3.org/2000/svg" viewBox="0 0 745 168.54"><defs><style>.cls-1{fill:#f15a24;}.cls-2{fill:#f7931e;}</style></defs><title>logo-color</title><g id="Layer_2" data-name="Layer 2"><g id="Layer_1-2" data-name="Layer 1"><path class="cls-1" d="M22.14,60.28h84.58a48,48,0,0,1,48,48v0a0,0,0,0,1,0,0H70.12a48,48,0,0,1-48-48v0a0,0,0,0,1,0,0Z"/><path class="cls-1" d="M125.64,77.66h84.58a48,48,0,0,1,48,48v0a0,0,0,0,1,0,0H173.62a48,48,0,0,1-48-48v0a0,0,0,0,1,0,0Z" transform="translate(90.27 293.57) rotate(-90)"/><path class="cls-1" d="M277.53,101.59h16.81V65.91H277.53a48.4,48.4,0,0,0-48.4,48.4v53.62h65.21V132.25H264.81V114.31A12.73,12.73,0,0,1,277.53,101.59Z"/><path class="cls-2" d="M403.94,35.37h-.42V71.05h29.53V89a12.72,12.72,0,0,1-12.72,12.72H403.52v26.7a39.75,39.75,0,0,1-1,9h17.83A48.39,48.39,0,0,0,468.72,89V35.37Z"/><path class="cls-1" d="M656.75,35.48a48.39,48.39,0,0,0-48.39,48.4v74.77h78.71V115.57H651.43V91.27a12.72,12.72,0,0,1,12.72-12.72h22.92V74.89A39.53,39.53,0,0,1,723.6,35.48Z"/><path class="cls-2" d="M70.12,0H176.85a0,0,0,0,1,0,0V0a48,48,0,0,1-48,48H22.14a0,0,0,0,1,0,0v0a48,48,0,0,1,48-48Z"/><path class="cls-2" d="M48,120.56H154.7a0,0,0,0,1,0,0v0a48,48,0,0,1-48,48H0a0,0,0,0,1,0,0v0A48,48,0,0,1,48,120.56Z"/><path class="cls-1" d="M486.22,83h66.83A37.91,37.91,0,0,1,591,120.91v0a0,0,0,0,1,0,0H524.13A37.91,37.91,0,0,1,486.22,83v0a0,0,0,0,1,0,0Z"/><path class="cls-2" d="M524.13,35.37h84.33a0,0,0,0,1,0,0v0a37.91,37.91,0,0,1-37.91,37.91H486.22a0,0,0,0,1,0,0v0a37.91,37.91,0,0,1,37.91-37.91Z"/><path class="cls-2" d="M506.63,130.63H591a0,0,0,0,1,0,0v0a37.91,37.91,0,0,1-37.91,37.91H468.72a0,0,0,0,1,0,0v0a37.91,37.91,0,0,1,37.91-37.91Z"/><path class="cls-1" d="M403.52,35.37V71.05a12.72,12.72,0,0,0-12.3,12.71v17.95h12.3v26.7A39.45,39.45,0,0,1,364,167.93h-8.46v-93a39.52,39.52,0,0,1,39.52-39.52Z"/><path class="cls-2" d="M342.32,0V119.53a48.41,48.41,0,0,1-48,48.4V132.25a12.74,12.74,0,0,0,12.3-12.72V101.59h-12.3V48A48,48,0,0,1,342.32,0Z"/><path class="cls-2" d="M342.32,119.53V120a48,48,0,0,1-48,48h0A48.41,48.41,0,0,0,342.32,119.53Z"/><path class="cls-2" d="M745,35.48v92.93a39.52,39.52,0,0,1-39.52,39.52H687.07V115.57h2.14a12.72,12.72,0,0,0,12.72-12.72V78.55H687.07V74.89A39.53,39.53,0,0,1,723.6,35.48Z"/><path class="cls-2" d="M745,35.37v.11H723.6c1-.07,2-.11,3-.11Z"/></g></g></svg>