<svg xmlns="http://www.w3.org/2000/svg" viewBox="0 0 745 168.54"><title>logo-black</title><g id="Layer_2" data-name="Layer 2"><g id="Layer_1-2" data-name="Layer 1"><path d="M106.72,60.28H22.14a48,48,0,0,0,48,48H154.7A48,48,0,0,0,106.72,60.28Z"/><path d="M167.93,83.35v84.58a48,48,0,0,0,48-48V35.37h0A48,48,0,0,0,167.93,83.35Z"/><path d="M468.72,35.37H395.06a39.52,39.52,0,0,0-39.52,39.52v93H364a39.54,39.54,0,0,0,38.5-30.54h17.83A48.39,48.39,0,0,0,468.72,89ZM433.05,89a12.72,12.72,0,0,1-12.72,12.72H391.22V83.76a12.72,12.72,0,0,1,12.3-12.71h29.53Z"/><path d="M176.85,0H70.12a48,48,0,0,0-48,48H128.87a48,48,0,0,0,48-48Z"/><path d="M0,168.54H106.72a48,48,0,0,0,48-48H48A48,48,0,0,0,0,168.54Z"/><path d="M553.05,83H486.22a37.91,37.91,0,0,0,37.91,37.91H591A37.91,37.91,0,0,0,553.05,83Z"/><path d="M608.46,35.37H524.13a37.91,37.91,0,0,0-37.91,37.91h84.33a37.91,37.91,0,0,0,37.91-37.91Z"/><path d="M468.72,168.54h84.33A37.91,37.91,0,0,0,591,130.63H506.63A37.92,37.92,0,0,0,468.72,168.54Z"/><path d="M294.34,48V65.91H277.53a48.4,48.4,0,0,0-48.4,48.4v53.62h65.21a48,48,0,0,0,48-48V0A48,48,0,0,0,294.34,48Zm-.42,84.27H264.81V114.31a12.73,12.73,0,0,1,12.72-12.72h29.11v17.94a12.74,12.74,0,0,1-12.3,12.72Z"/><path d="M726.6,35.37c-1,0-2,0-3,.11H656.75a48.39,48.39,0,0,0-48.39,48.4v74.77h78.71v9.28h18.41A39.52,39.52,0,0,0,745,128.41v-93Zm-24.67,67.48a12.72,12.72,0,0,1-12.72,12.72H651.43V91.27a12.72,12.72,0,0,1,12.72-12.72h37.78Z"/></g></g></svg>